:version 1.10
:name ASF
:units
  mass 1
  length 1
  angle deg
:documentation
  ASF file generated by Kaydara
:root
  axis xyz
  order  tx ty tz rx ry rz
  position 0 0 0
  orientation 0 0 0
:bonedata
  begin
    id 1
    name RightUpLegDummy
    direction -0.718183 -0.695806 0.00816078
    length 4.904
    axis 0 0 0 xyz
  end
  begin
    id 2
    name RightUpLeg
    direction 3.53373e-006 -0.995788 0.0916898
    length 17.4976
    axis -3.49089 -0.000906625 0.000286804 xyz
    dof rx ry rz
  end
  begin
    id 3
    name RightLeg
    direction 0.00371092 -0.995096 -0.0988419
    length 16.5821
    axis 3.68512 0.0193738 -0.131023 xyz
    dof rx ry rz
  end
  begin
    id 4
    name RightFoot
    direction 0.00079151 -0.46099 0.887405
    length 3.77069
    axis 4.81691e-005 -0.120479 -0.188788 xyz
    dof rx ry rz
  end
  begin
    id 5
    name RightToes
    direction 0 0 0
    length 0
    axis 0 0 0 xyz
    dof rx ry rz
  end
  begin
    id 6
    name SpineDummy
    direction 8.3039e-015 1 4.57515e-016
    length 4.6813
    axis 0 0 0 xyz
  end
  begin
    id 7
    name Spine
    direction -3.15643e-008 0.999988 0.00495137
    length 10.1015
    axis -0.001389 0.000121418 2.40972e-006 xyz
    dof rx ry rz
  end
  begin
    id 8
    name Spine1
    direction 0 0 0
    length 0
    axis -0.001389 0.000121451 1.30017e-006 xyz
    dof rx ry rz
  end
  begin
    id 9
    name HEadDummy
    direction -1.99912e-008 0.999999 0.00127422
    length 3.43865
    axis -0.001389 0.000121451 1.30017e-006 xyz
  end
  begin
    id 10
    name HEad
    direction 0 0 0
    length 0
    axis 0 0 0 xyz
    dof rx ry rz
  end
  begin
    id 11
    name LeftShoulder1Dummy
    direction 0.998891 -0.0402509 -0.0244456
    length 3.5433
    axis -0.001389 0.000121451 1.30017e-006 xyz
  end
  begin
    id 12
    name LeftShoulder1
    direction 0.99951 -0.000327763 0.0313091
    length 4.05031
    axis -0.001389 0.000121451 1.30017e-006 xyz
    dof rx ry rz
  end
  begin
    id 13
    name LeftArm
    direction 0.998561 -0.00100056 -0.0536182
    length 10.3537
    axis -23.1894 0.134784 0.967509 xyz
    dof rx ry rz
  end
  begin
    id 14
    name LeftForeArm
    direction 0.998903 0.00866432 0.046012
    length 8.70632
    axis -9.91835 -0.06569 -0.177794 xyz
    dof rx ry rz
  end
  begin
    id 15
    name LeftHand
    direction 0 0 0
    length 0
    axis 0 0 0 xyz
    dof rx ry rz
  end
  begin
    id 16
    name RightShoulderDummy
    direction -0.998891 -0.0402509 -0.0244414
    length 3.5433
    axis -0.001389 0.000121451 1.30017e-006 xyz
  end
  begin
    id 17
    name RightShoulder
    direction -0.99951 -0.000327807 0.0313133
    length 4.05031
    axis 0.215806 0.000203643 -0.0068026 xyz
    dof rx ry rz
  end
  begin
    id 18
    name RightArm
    direction -0.998573 -0.000999564 -0.053403
    length 10.3947
    axis -23.2009 -0.134239 -0.964101 xyz
    dof rx ry rz
  end
  begin
    id 19
    name RightForeArm
    direction -0.998898 0.00868028 0.0461306
    length 8.68355
    axis -9.92322 0.0658061 0.178868 xyz
    dof rx ry rz
  end
  begin
    id 20
    name RightHand
    direction 0 0 0
    length 0
    axis 0 0 0 xyz
    dof rx ry rz
  end
  begin
    id 21
    name LeftUpLegDummy
    direction 0.718183 -0.695806 0.00816078
    length 4.904
    axis 0 0 0 xyz
  end
  begin
    id 22
    name LeftUpLeg
    direction -6.81752e-006 -0.995793 0.0916337
    length 17.4976
    axis -3.48766 0.00143442 -0.000524262 xyz
    dof rx ry rz
  end
  begin
    id 23
    name LeftLeg
    direction -0.00601358 -0.995091 -0.0987824
    length 16.5821
    axis 3.68178 -0.00654042 -0.000285133 xyz
    dof rx ry rz
  end
  begin
    id 24
    name LeftFoot
    direction -0.00417578 -0.460984 0.887399
    length 3.77069
    axis 1.87233e-006 4.66016e-005 -8.6538e-006 xyz
    dof rx ry rz
  end
  begin
    id 25
    name LeftToes
    direction 0 0 0
    length 0
    axis 0 0 0 xyz
    dof rx ry rz
  end
:hierarchy
  begin
    root RightUpLegDummy SpineDummy LeftUpLegDummy
    RightUpLegDummy RightUpLeg
    RightUpLeg RightLeg
    RightLeg RightFoot
    RightFoot RightToes
    SpineDummy Spine
    Spine Spine1
    Spine1 HEadDummy LeftShoulder1Dummy RightShoulderDummy
    HEadDummy HEad
    LeftShoulder1Dummy LeftShoulder1
    LeftShoulder1 LeftArm
    LeftArm LeftForeArm
    LeftForeArm LeftHand
    RightShoulderDummy RightShoulder
    RightShoulder RightArm
    RightArm RightForeArm
    RightForeArm RightHand
    LeftUpLegDummy LeftUpLeg
    LeftUpLeg LeftLeg
    LeftLeg LeftFoot
    LeftFoot LeftToes
  end

:SAMPLES-PER-SECOND 30
:FULLY-SPECIFIED
:DEGREES
360
root  13.7571 40.7402 8.09242 9.18658 80.7051 10.0487
RightUpLeg  -4.46222 -9.78918 -8.57169
RightLeg  7.54281 1.23708 2.62443
RightFoot  0.461738 -0.128831 1.27388
RightToes  0.000481921 0.542163 -0.142578
Spine  7.87769 -2.91744 -8.57761
Spine1  0.340846 -5.38083 10.1783
HEad  19.7617 25.809 -2.40378
LeftShoulder1  6.03518 -10.1325 -38.0939
LeftArm  -9.30553 11.9564 -37.2528
LeftForeArm  -175.343 -49.2264 -169.282
LeftHand  -0.25398 0.0180481 5.50724
RightShoulder  3.55077 6.01464 31.352
RightArm  7.72264 -10.682 39.6738
RightForeArm  159.167 58.4955 162.817
RightHand  -0.773959 1.33926 -13.4784
LeftUpLeg  2.40058 6.78442 4.64769
LeftLeg  1.42645 25.9552 -4.29677
LeftFoot  -0.133344 0.299995 -3.04914
LeftToes  1.06247e-005 4.65869e-005 -8.65511e-006
361
root  13.8043 40.7536 8.15292 11.2795 81.8935 12.1293
RightUpLeg  -3.99515 -9.8913 -8.80126
RightLeg  7.33805 0.160981 2.69483
RightFoot  0.254658 -0.129411 1.29629
RightToes  0.000481921 0.542163 -0.142578
Spine  7.15869 -2.84195 -7.71182
Spine1  0.841669 -5.07021 9.26175
HEad  19.2514 23.8666 -2.42198
LeftShoulder1  6.02456 -10.2315 -37.7131
LeftArm  -9.07166 11.7054 -36.7269
LeftForeArm  -176.025 -48.9847 -169.325
LeftHand  -0.25398 0.0180481 5.50724
RightShoulder  3.55254 6.04805 31.2398
RightArm  7.28656 -10.988 40.5093
RightForeArm  157.183 58.6599 162.54
RightHand  -0.832414 1.24796 -14.6719
LeftUpLeg  2.38184 6.59145 4.56644
LeftLeg  1.17046 24.9655 -4.29761
LeftFoot  0.070327 0.301602 -3.02724
LeftToes  1.06247e-005 4.65869e-005 -8.65511e-006
362
root  13.8452 40.761 8.18907 13.1769 82.8512 14.1035
RightUpLeg  -3.5564 -9.95782 -8.95889
RightLeg  7.24057 -0.700598 2.69701
RightFoot  0.0687898 -0.133599 1.36641
RightToes  0.000481921 0.542163 -0.142578
Spine  6.8239 -2.72982 -6.77749
Spine1  1.03798 -4.72936 8.36352
HEad  18.9001 22.3651 -2.51119
LeftShoulder1  5.97163 -10.1643 -37.5475
LeftArm  -8.71545 11.8979 -36.7043
LeftForeArm  -176.491 -48.6377 -169.422
LeftHand  -0.25398 0.0180481 5.50724
RightShoulder  3.62208 6.21475 31.3176
RightArm  7.06558 -11.339 40.9847
RightForeArm  156.967 58.3901 162.693
RightHand  -0.825887 1.09474 -14.8772
LeftUpLeg  2.39877 6.46403 4.5171
LeftLeg  1.10467 24.1395 -4.23229
LeftFoot  0.18145 0.301848 -3.01558
LeftToes  1.06247e-005 4.65869e-005 -8.65511e-006
363
root  13.8782 40.7616 8.20721 14.9028 83.5558 15.9554
RightUpLeg  -3.20766 -10.0532 -9.08344
RightLeg  7.28155 -1.27281 2.66941
RightFoot  -0.103077 -0.137065 1.42299
RightToes  0.000481921 0.542163 -0.142578
Spine  6.87534 -2.62076 -5.9568
Spine1  0.706686 -4.40677 7.59152
HEad  19.0987 21.1303 -2.53044
LeftShoulder1  5.92888 -10.1307 -37.3492
LeftArm  -8.28984 12.8304 -36.9614
LeftForeArm  -175.876 -48.2185 -169.616
LeftHand  -0.25398 0.0180481 5.50724
RightShoulder  3.71596 6.36455 31.7074
RightArm  7.27817 -11.4774 40.8761
RightForeArm  158.595 58.1897 162.96
RightHand  -0.749619 0.860454 -14.0072
LeftUpLeg  2.44396 6.4036 4.48514
LeftLeg  1.1568 23.4881 -4.16358
LeftFoot  0.217458 0.298868 -2.96578
LeftToes  1.06247e-005 4.65869e-005 -8.65511e-006
364
root  13.8994 40.7565 8.22451 16.8696 84.1138 18.0157
RightUpLeg  -3.02896 -10.2011 -9.19401
RightLeg  7.48199 -1.65351 2.63011
RightFoot  -0.291075 -0.135917 1.41152
RightToes  0.000481921 0.542163 -0.142578
Spine  6.84162 -2.52369 -5.56308
Spine1  0.535082 -4.22426 7.33177
HEad  19.5469 20.1342 -2.91663
LeftShoulder1  5.94608 -10.2272 -37.1753
LeftArm  -7.96318 14.0327 -37.1686
LeftForeArm  -175.92 -47.7042 -169.798
LeftHand  -0.25398 0.0180481 5.50724
RightShoulder  3.75097 6.40436 31.9104
RightArm  7.76526 -11.2465 40.9016
RightForeArm  159.98 58.3798 162.96
RightHand  -0.698164 0.739944 -13.3079
LeftUpLeg  2.42399 6.37501 4.45311
LeftLeg  1.28955 22.9389 -4.10479
LeftFoot  0.208898 0.293365 -2.88674
LeftToes  1.06247e-005 4.65869e-005 -8.65511e-006
